<?xml version="1.0" encoding="UTF-8"?><svg id="_レイヤー_2" xmlns="http://www.w3.org/2000/svg" viewBox="0 0 1000 154.93"><defs><style>.cls-1{stroke-width:0px;}</style></defs><g id="_レイヤー_1-2"><path class="cls-1" d="m54.75,154.93H17.08c-11.45,0-17.08-4.27-17.08-15.92V15.92C0,4.27,5.63,0,17.08,0h37.66v22.91h-29.32v109.11h29.32v22.91Z"/><path class="cls-1" d="m131.82,77.85c0,11.84-6.21,15.92-17.67,15.92h-3.49v61.16h-25.43v-61.16h-4.08c-11.45,0-17.47-4.08-17.47-15.92V0h25.43v71.25h17.28V0h25.43v77.85Z"/><path class="cls-1" d="m211.22,138.62c0,10.1-6.6,16.31-17.67,16.31h-50.48V0h50.48c11.45,0,17.67,4.47,17.67,16.31v49.12c0,7.57-3.49,11.07-8.74,12.81v.58c5.24.78,8.74,4.08,8.74,11.65v48.15Zm-25.43-71.44V22.91h-17.28v44.26h17.28Zm0,64.84v-42.32h-17.28v42.32h17.28Z"/><path class="cls-1" d="m277.23,154.93h-54.75V0h54.75v22.91h-29.32v44.26h27.37v22.52h-27.37v42.32h29.32v22.91Z"/><path class="cls-1" d="m354.11,154.93h-25.43v-57.08h-17.08v57.08h-25.43V0h50.48c11.45,0,17.47,4.66,17.47,16.5v57.08c0,7.57-3.49,11.07-9.32,12.81v.58c5.63.58,9.32,4.08,9.32,11.65v56.3Zm-25.43-79.79V22.91h-17.08v52.22h17.08Z"/><path class="cls-1" d="m457.39,154.93h-37.66c-11.45,0-17.08-4.27-17.08-15.92V15.92c0-11.65,5.63-15.92,17.08-15.92h37.66v22.91h-29.32v109.11h29.32v22.91Z"/><path class="cls-1" d="m534.46,154.93h-25.43v-57.08h-17.28v57.08h-25.43V16.5c0-11.84,6.21-16.5,17.67-16.5h50.48v154.93Zm-25.43-79.79V22.91h-17.28v52.22h17.28Z"/><path class="cls-1" d="m650.94,16.31c0,1.94-.19,18.64-.19,138.62h-25.43V22.91h-14.37v132.02h-25.43V22.91h-14.37v132.02h-25.43V16.5c0-11.84,6.21-16.5,17.67-16.5h21.35c7.18,0,11.46,2.33,13.01,7.77h.78c1.94-4.85,6.02-7.77,13.2-7.77h21.16c11.45,0,17.67,4.47,17.67,16.31h.39Z"/><path class="cls-1" d="m729.96,81.54c0,11.84-6.02,16.31-17.47,16.31h-25.04v57.08h-25.43V0h50.48c11.45,0,17.47,4.66,17.47,16.5v65.04Zm-25.43-6.6V22.91h-17.08v52.03h17.08Z"/><path class="cls-1" d="m808.39,138.62c0,11.84-6.02,16.31-17.47,16.31h-33c-11.45,0-17.47-4.47-17.47-16.31V0h25.43v132.02h17.09V0h25.43v138.62Z"/><path class="cls-1" d="m883.52,139.01c0,11.65-6.02,15.92-17.28,15.92h-46.59v-22.91h38.44v-42.32h-22.13c-11.84,0-16.31-6.02-16.31-17.47V16.5c0-11.84,6.02-16.5,17.47-16.5h42.71v22.91h-34.75v44.26h22.13c11.84,0,16.31,6.21,16.31,17.67v54.17Z"/><path class="cls-1" d="m1000,154.93h-25.43v-32.03c0-11.84-3.69-22.52-7.96-29.9h-.97c-3.69,6.8-8.15,16.5-8.15,29.9v32.03h-25.43v-36.11c0-15.34,6.21-28.73,13.59-40.58-7.38-11.84-13.59-25.04-13.59-40.38V0h25.43v33.78c0,13.4,4.47,23.1,8.15,29.9h.97c4.27-7.38,7.96-18.06,7.96-29.9V0h25.43v37.08c0,14.95-6.02,28.73-13.59,41.16,7.57,12.43,13.59,26.4,13.59,41.35v35.33Z"/></g></svg>